<svg xmlns="http://www.w3.org/2000/svg"  viewBox="0 0 48 48" width="48px" height="48px"><linearGradient id="1SXCtb4sW6M13flTzXHDta" x1="10.645" x2="38.25" y1="11.8" y2="36.027" gradientUnits="userSpaceOnUse"><stop offset="0" stop-color="#3bc9f3"/><stop offset=".243" stop-color="#37c3f0"/><stop offset=".584" stop-color="#2ab0e7"/><stop offset=".979" stop-color="#1693d9"/><stop offset="1" stop-color="#1591d8"/></linearGradient><path fill="url(#1SXCtb4sW6M13flTzXHDta)" d="M28,4C12,4,4,18.559,4,28c0,8.182,3,10,5.23,10c4.3,0,6.335-7,9.77-7c1.533,0,3,1.076,3,3	c0,2.671-3,2.753-3,6.389C19,41.72,20.37,44,23.332,44C31.792,44,44,34,44,20.5C44,8.145,35,4,28,4z M25.5,29	c-1.381,0-2.5-1.119-2.5-2.5s1.119-2.5,2.5-2.5s2.5,1.119,2.5,2.5S26.881,29,25.5,29z"/><path d="M38.429,35.535L39,25v-2.741l2.308-4.161c0.361-0.653,0.352-1.428-0.027-2.071	C40.901,15.384,40.229,15,39.482,15h-7.965c-0.746,0-1.419,0.384-1.798,1.027c-0.379,0.643-0.389,1.417-0.027,2.071L32,22.259	l0.002,2.795l0.845,15.588C34.851,39.289,36.767,37.564,38.429,35.535z" opacity=".05"/><path d="M30.619,16.014c-0.604,0.322-0.87,1.153-0.489,1.842l2.37,4.273l0.001,2.898l0.828,15.272	c1.624-1.141,3.18-2.539,4.567-4.153L38.5,25v-2.871l2.37-4.274c0.381-0.689,0.115-1.521-0.489-1.842	c-0.189-0.322-1.229-0.514-1.602-0.514h-6.554C31.852,15.5,30.808,15.692,30.619,16.014z" opacity=".07"/><radialGradient id="1SXCtb4sW6M13flTzXHDtb" cx="15.5" cy="17.5" r="4.5" gradientUnits="userSpaceOnUse"><stop offset="0"/><stop offset="1" stop-opacity="0"/></radialGradient><circle cx="15.5" cy="17.5" r="4.5" fill="url(#1SXCtb4sW6M13flTzXHDtb)" opacity=".15"/><radialGradient id="1SXCtb4sW6M13flTzXHDtc" cx="10.5" cy="26.5" r="4.5" gradientUnits="userSpaceOnUse"><stop offset="0"/><stop offset="1" stop-opacity="0"/></radialGradient><circle cx="10.5" cy="26.5" r="4.5" fill="url(#1SXCtb4sW6M13flTzXHDtc)" opacity=".15"/><radialGradient id="1SXCtb4sW6M13flTzXHDtd" cx="13.51" cy="13.722" r="6.873" gradientUnits="userSpaceOnUse"><stop offset="0" stop-color="#e85182"/><stop offset="1" stop-color="#d03767"/></radialGradient><circle cx="15.5" cy="16.5" r="3.5" fill="url(#1SXCtb4sW6M13flTzXHDtd)"/><radialGradient id="1SXCtb4sW6M13flTzXHDte" cx="24.5" cy="12.5" r="4.5" gradientUnits="userSpaceOnUse"><stop offset="0"/><stop offset="1" stop-opacity="0"/></radialGradient><circle cx="24.5" cy="12.5" r="4.5" fill="url(#1SXCtb4sW6M13flTzXHDte)" opacity=".15"/><radialGradient id="1SXCtb4sW6M13flTzXHDtf" cx="22.715" cy="8.859" r="6.758" gradientUnits="userSpaceOnUse"><stop offset="0" stop-color="#835fc1"/><stop offset="1" stop-color="#634796"/></radialGradient><circle cx="24.5" cy="11.5" r="3.5" fill="url(#1SXCtb4sW6M13flTzXHDtf)"/><radialGradient id="1SXCtb4sW6M13flTzXHDtg" cx="8.46" cy="22.546" r="6.755" gradientUnits="userSpaceOnUse"><stop offset="0" stop-color="#fee100"/><stop offset="1" stop-color="#f7a511"/></radialGradient><circle cx="10.5" cy="25.5" r="3.5" fill="url(#1SXCtb4sW6M13flTzXHDtg)"/><linearGradient id="1SXCtb4sW6M13flTzXHDth" x1="33" x2="38" y1="23.5" y2="23.5" gradientUnits="userSpaceOnUse"><stop offset="0" stop-color="#b0b0b0"/><stop offset="1" stop-color="#a1a1a1"/></linearGradient><rect width="5" height="3" x="33" y="22" fill="url(#1SXCtb4sW6M13flTzXHDth)"/><linearGradient id="1SXCtb4sW6M13flTzXHDti" x1="35.5" x2="35.5" y1="45.645" y2="25.176" gradientUnits="userSpaceOnUse"><stop offset="0" stop-color="#4a4a4a"/><stop offset=".659" stop-color="#323232"/><stop offset="1" stop-color="#232323"/></linearGradient><path fill="url(#1SXCtb4sW6M13flTzXHDti)" d="M35.5,46L35.5,46c-0.763,0-1.393-0.597-1.435-1.359L33,25h5l-1.065,19.641	C36.893,45.403,36.263,46,35.5,46z"/><path fill="#f6f6f6" d="M38,22h-5l-2.433-4.386C30.166,16.889,30.69,16,31.518,16h7.965c0.828,0,1.352,0.889,0.95,1.614	L38,22z"/></svg>