<svg xmlns="http://www.w3.org/2000/svg"  viewBox="0 0 48 48" width="48px" height="48px"><linearGradient id="i0tLBt0kkU3aFZYS2NQZna" x1="40" x2="40" y1="10.336" y2="39.926" gradientTransform="matrix(1 0 0 -1 0 54)" gradientUnits="userSpaceOnUse"><stop offset="0" stop-color="#0362b0"/><stop offset=".112" stop-color="#036abd"/><stop offset=".258" stop-color="#036fc5"/><stop offset=".5" stop-color="#0370c8"/><stop offset=".742" stop-color="#036fc5"/><stop offset=".888" stop-color="#036abd"/><stop offset="1" stop-color="#0362b0"/></linearGradient><path fill="url(#i0tLBt0kkU3aFZYS2NQZna)" d="M41.828,38.172L37,43V29c0-0.552,0.448-1,1-1h4c0.552,0,1,0.448,1,1v6.343	C43,36.404,42.579,37.421,41.828,38.172z"/><linearGradient id="i0tLBt0kkU3aFZYS2NQZnb" x1="5" x2="37" y1="24" y2="24" gradientUnits="userSpaceOnUse"><stop offset="0" stop-color="#32bdef"/><stop offset="1" stop-color="#1ea2e4"/></linearGradient><path fill="url(#i0tLBt0kkU3aFZYS2NQZnb)" d="M37,37v6H9c-2.209,0-4-1.791-4-4V6c0-0.55,0.45-1,1-1h4c0.55,0,1,0.45,1,1v30	c0,0.552,0.448,1,1,1H37z"/><linearGradient id="i0tLBt0kkU3aFZYS2NQZnc" x1="20" x2="20" y1="33" y2="18.052" gradientUnits="userSpaceOnUse"><stop offset=".273" stop-color="#107c42"/><stop offset=".611" stop-color="#117a41"/><stop offset=".795" stop-color="#13723e"/><stop offset=".94" stop-color="#16643a"/><stop offset="1" stop-color="#185c37"/></linearGradient><path fill="url(#i0tLBt0kkU3aFZYS2NQZnc)" d="M24,18v13c0,1.105-0.895,2-2,2h-4c-1.105,0-2-0.895-2-2V18H24z"/><path fill="#33c481" d="M44.643,13.357l-9.091-9.091c-0.26-0.26-0.65-0.337-0.991-0.197C34.221,4.21,34,4.541,34,4.909V10	h-6.686c-2.122,0-4.157,0.843-5.657,2.343L16,18h18v5.091c0,0.368,0.221,0.699,0.561,0.84C34.674,23.977,34.792,24,34.909,24	c0.236,0,0.469-0.092,0.643-0.266l9.091-9.091C44.998,14.288,44.998,13.712,44.643,13.357z"/></svg>