<?xml version="1.0" encoding="utf-8"?>
<svg xmlns="http://www.w3.org/2000/svg" height="20" width="20" viewBox="0 0 20 20">
  <g>
    <path id="path1" transform="rotate(0,10,10) translate(0,0.625) scale(0.208333333333333,0.208333333333333)  " fill="#000000" d="M57,60L55.8632774353027,60.22265625 54.890625,60.890625 54.2226524353027,61.86328125 54,63 54,81 54.2226524353027,82.13671875 54.890625,83.109375 55.8632774353027,83.77734375 57,84 75,84 76.13671875,83.77734375 77.109375,83.109375 77.77734375,82.13671875 78,81 78,63 77.77734375,61.86328125 77.109375,60.890625 76.13671875,60.22265625 75,60 57,60z M14.9999990463257,60L13.8632802963257,60.22265625 12.8906240463257,60.890625 12.22265625,61.86328125 12,63 12,81 12.22265625,82.13671875 12.8906240463257,83.109375 13.8632802963257,83.77734375 14.9999990463257,84 33,84 34.13671875,83.77734375 35.109375,83.109375 35.77734375,82.13671875 36,81 36,63 35.77734375,61.86328125 35.109375,60.890625 34.13671875,60.22265625 33,60 14.9999990463257,60z M57,54L75,54 78.46875,54.703125 81.3515625,56.6484375 83.296875,59.53125 84,63 84,81 83.296875,84.46875 81.3515625,87.3515625 78.46875,89.296875 75,90 57,90 53.53125,89.296875 50.6484375,87.3515625 48.703125,84.46875 48,81 48,63 48.703125,59.53125 50.6484375,56.6484375 53.53125,54.703125 57,54z M14.9999990463257,54L33,54 36.46875,54.703125 39.3515625,56.6484375 41.296875,59.53125 42,63 42,81 41.296875,84.46875 39.3515625,87.3515625 36.46875,89.296875 33,90 14.9999990463257,90 11.53125,89.296875 8.6484375,87.3515625 6.703125,84.46875 6,81 6,63 6.703125,59.53125 8.6484375,56.6484375 11.53125,54.703125 14.9999990463257,54z M14.9999990463257,18L13.8632802963257,18.22265625 12.8906240463257,18.890625 12.22265625,19.86328125 12,21 12,39 12.22265625,40.1367225646973 12.8906240463257,41.109375 13.8632802963257,41.7773475646973 14.9999990463257,42 33,42 34.13671875,41.7773475646973 35.109375,41.109375 35.77734375,40.1367225646973 36,39 36,21 35.77734375,19.86328125 35.109375,18.890625 34.13671875,18.22265625 33,18 14.9999990463257,18z M48.984375,16.921875L51.0234375,20.9296875 54,24.328125 54,39 54.2226524353027,40.1367225646973 54.890625,41.109375 55.8632774353027,41.7773475646973 57,42 75.046875,42 77.7890625,41.484375 80.0390625,40.1484375 82.0546875,38.3203125 84,36.328125 84,39 83.296875,42.46875 81.3515625,45.3515625 78.46875,47.296875 75,48 57,48 53.53125,47.296875 50.6484375,45.3515625 48.703125,42.46875 48,39 48,21 48.24609375,18.90234375 48.984375,16.921875z M14.9999990463257,12.0000009536743L33,12.0000009536743 36.46875,12.7031259536743 39.3515625,14.6484375 41.296875,17.53125 42,21 42,39 41.296875,42.46875 39.3515625,45.3515625 36.46875,47.296875 33,48 14.9999990463257,48 11.53125,47.296875 8.6484375,45.3515625 6.703125,42.46875 6,39 6,21 6.703125,17.53125 8.6484375,14.6484375 11.53125,12.7031259536743 14.9999990463257,12.0000009536743z M65.296875,0L68.25,0.3515625 70.6875,1.33593726158142 72.84375,2.88281273841858 75,4.87499952316284 77.1328125,2.85937571525574 79.2421875,1.33593726158142 81.6328125,0.374999642372131 84.5625,0.0468756258487701 86.841796875,0.269531399011612 88.9921875,0.937500476837158 92.625,3.35156226158142 95.0859375,6.9375 95.771484375,9.0703125 96,11.34375 95.7919921875,13.5615234375 95.16796875,15.62109375 94.1279296875,17.5224609375 92.671875,19.265625 76.3125,35.484375 75.09375,36 74.4140625,35.859375 73.828125,35.484375 57.375,19.171875 54.890625,15.4921875 54.2226524353027,13.365234375 54,11.15625 54.2226524353027,8.888671875 54.890625,6.7734375 57.328125,3.23437523841858 60.9140625,0.867187678813934 63.0292930603027,0.216796904802322 65.296875,0z" />
  </g>
</svg>

