<?xml version="1.0" encoding="utf-8"?>
<svg xmlns="http://www.w3.org/2000/svg" height="20" width="20" viewBox="0 0 20 20">
  <g>
    <path id="path1" transform="rotate(0,10,10) translate(0,0.537210448496797) scale(0.03942828979793,0.03942828979793)  " fill="#000000" d="M135.25,192L129.65625,192.46875 124.375,193.875 119.46875,196.125 115,199.125 111.0625,202.84375 107.75,207.25 105.25,212.187515258789 103.75,217.5 56.4999961853027,447 59.9999961853027,447.75 64,448 414.25,448 419.906219482422,447.46875 425.375,445.875 430.5,443.34375 435.125,440 439.124969482422,435.9375 442.375,431.25 444.71875,426.0625 446,420.5 475,210.25 475.1875,209.062515258789 475.25,207.5 474.953125,204.375015258789 474.0625,201.5 472.578125,198.875 470.5,196.5 468.015625,194.53125 465.3125,193.125 462.390625,192.28125 459.25,192 135.25,192z M64,64L57.5,64.625 51.4999961853027,66.5 46.0937461853027,69.4687652587891 41.375,73.375 37.46875,78.0937652587891 34.5,83.5 32.625,89.5 31.9999961853027,96 31.9999961853027,407.5 72.5,211 73.8515625,205.601577758789 75.65625,200.40625 77.9140625,195.4140625 80.625,190.625 87.125,181.90625 94.875,174.5 103.75,168.46875 113.625,163.875 118.8671875,162.179702758789 124.21875,160.96875 129.6796875,160.2421875 135.25,160 448,160 447.375,153.656265258789 445.5,147.625 442.53125,142.125015258789 438.625,137.375 433.874969482422,133.468765258789 428.375,130.5 422.34375,128.625 416,128 248,128 209.5,76.75 204.4375,71.40625 198.25,67.375 194.828125,65.8984375 191.3125,64.84375 187.703125,64.2109375 184,64 64,64z M62.7500038146973,31.9999980926514L184,31.9999980926514 191.601547241211,32.4218902587891 198.906234741211,33.6875228881836 205.914047241211,35.7968902587891 212.625,38.75 218.960922241211,42.4531440734863 224.843734741211,46.8125228881836 230.2734375,51.8281440734863 235.25,57.5000038146973 249.625,76.75 264,96 417.25,96 423.8671875,96.3359375 430.21875,97.3437576293945 436.3046875,99.0234451293945 442.125,101.375 447.6328125,104.296882629395 452.78125,107.687515258789 457.5703125,111.546882629395 462,115.875 466.015625,120.617210388184 469.5625,125.718780517578 472.640625,131.179702758789 475.25,137 477.328094482422,143.0625 478.812469482422,149.25 479.703094482422,155.5625 480,162 480,164.75 485.828125,168.1015625 491.0625,172.15625 495.703125,176.9140625 499.75,182.375 503.03125,188.3203125 505.375,194.53125 506.78125,201.0078125 507.25,207.75 507.125,211.125 506.75,214.5 477.5,424.75 476.4921875,430.5234375 474.96875,436.09375 472.9296875,441.4609375 470.375,446.625 464.03125,456.0625 456.25,464.125 451.859375,467.6171875 447.187469482422,470.71875 442.234344482422,473.4296875 437,475.75 431.546875,477.609375 425.9375,478.9375 420.171875,479.734375 414.25,480 62.7500038146973,480 56.5703125,479.6796875 50.53125,478.71875 44.6328125,477.1171875 38.8750038146973,474.875 33.359375,472.09375 28.1875,468.875 23.359375,465.21875 18.875,461.125 14.78125,456.640625 11.1249990463257,451.8125 7.90624856948853,446.640625 5.12499713897705,441.125 2.8828113079071,435.3671875 1.28124964237213,429.46875 0.320312470197678,423.4296875 2.8421709430404E-14,417.25 2.8421709430404E-14,94.75 0.320312470197678,88.5703277587891 1.28124964237213,82.5312728881836 2.8828113079071,76.6328353881836 5.12499713897705,70.875 7.90624856948853,65.3593826293945 11.1249990463257,60.1875076293945 14.78125,55.359375 18.875,50.8749961853027 23.359375,46.78125 28.1875,43.1250076293945 33.359375,39.9062614440918 38.8750038146973,37.1250038146973 44.6328125,34.8828353881836 50.53125,33.2812767028809 56.5703125,32.3203315734863 62.7500038146973,31.9999980926514z" />
  </g>
</svg>

