<?xml version="1.0" encoding="utf-8"?>
<svg xmlns="http://www.w3.org/2000/svg" height="20" width="20" viewBox="0 0 20 20">
  <g>
    <path id="path1" transform="rotate(0,10,10) translate(0,0) scale(0.0390625,0.0390625)  " fill="#000000" d="M377.25,277.5L459.75,360 335.5,484.25 330.625,488 325,490.25 323.2421875,490.6953125 320.96875,491.28125 318.1796875,492.0078125 314.875,492.875 307.1875,494.90625 298.375,497.25 278.875,502.25 269.0625,504.6875 259.875,507 251.59375,509.03125 244.5,510.625 241.546875,511.2265625 239.1875,511.65625 237.421875,511.9140625 236.25,512 234.1796875,511.7890625 232.21875,511.15625 230.3671875,510.1015625 228.625,508.625 227.1484375,506.8828125 226.09375,505.03125 225.4609375,503.0703125 225.25,501 225.3359375,499.828125 225.59375,498.0625 226.0234375,495.703125 226.625,492.75 228.218734741211,485.65625 230.25,477.375 232.562484741211,468.15625 235,458.25 237.5,448.25 240,438.75 242.34375,430 244.375,422.25 245.2421875,418.890625 245.96875,416.0625 246.5546875,413.765625 247,412 249.25,406.5625 253,401.75 377.25,277.5z M454.75,224L460.65625,224.2734375 466.375,225.09375 471.90625,226.4609375 477.25,228.375 482.328125,230.773452758789 487.0625,233.593765258789 491.453125,236.8359375 495.5,240.5 499.164031982422,244.546890258789 502.406219482422,248.9375 505.2265625,253.671875 507.625,258.75 509.5390625,264.09375 510.90625,269.625 511.7265625,275.34375 512,281.25 511.59375,289.3125 510.375,296.5 508.375,303.03125 505.625,309.125 502.156219482422,314.90625 498,320.5 493.249969482422,326.0625 488,331.75 405.5,249.25 410.937469482422,243.750015258789 416.25,238.75 421.624969482422,234.375015258789 427.25,230.75 433.21875,227.875015258789 439.625,225.75 446.718719482422,224.4375 454.75,224z M304,128L300.859375,128.296875 297.9375,129.1875 295.234375,130.671875 292.75,132.75 290.671875,135.234390258789 289.1875,137.937515258789 288.296875,140.859390258789 288,144 288.296875,147.140625 289.1875,150.0625 290.671875,152.765625 292.75,155.25 295.234375,157.328140258789 297.9375,158.8125 300.859375,159.703125 304,160 307.140625,159.703125 310.0625,158.8125 312.765625,157.328140258789 315.25,155.25 317.328125,152.765625 318.8125,150.0625 319.703125,147.140625 320,144 319.703125,140.859390258789 318.8125,137.937515258789 317.328125,135.234390258789 315.25,132.75 312.765625,130.671875 310.0625,129.1875 307.140625,128.296875 304,128z M304,96L308.8125,96.234375 313.5,96.9375 318.0625,98.109375 322.5,99.75 330.71875,104.21875 337.875,110.125 343.78125,117.281265258789 348.25,125.5 349.890625,129.9375 351.0625,134.5 351.765625,139.1875 352,144 351.765625,148.8125 351.0625,153.5 349.890625,158.062515258789 348.25,162.5 343.78125,170.71875 337.875,177.875 330.71875,183.78125 322.5,188.25 318.0625,189.890625 313.5,191.0625 308.8125,191.765625 304,192 299.1875,191.765625 294.5,191.0625 289.9375,189.890625 285.5,188.25 277.28125,183.78125 270.125,177.875 264.21875,170.71875 259.75,162.5 258.109375,158.062515258789 256.9375,153.5 256.234375,148.8125 256,144 256.234375,139.1875 256.9375,134.5 258.109375,129.9375 259.75,125.5 264.21875,117.281265258789 270.125,110.125 277.28125,104.21875 285.5,99.75 289.9375,98.109375 294.5,96.9375 299.1875,96.234375 304,96z M62.75,0L385.25,0 391.4296875,0.320313930511475 397.46875,1.28125381469727 403.3671875,2.88281679153442 409.125,5.125 414.640625,7.90626287460327 419.8125,11.1250190734863 424.640625,14.7812652587891 429.125,18.875 433.21875,23.3593902587891 436.875,28.1875190734863 440.09375,33.3593864440918 442.875,38.875 445.1171875,44.6328201293945 446.71875,50.5312614440918 447.6796875,56.5703239440918 448,62.75 448,184.25 439.8125,185.125015258789 431.75,186.75 423.812469482422,189.0625 416,192 416,64 415.375,57.6562652587891 413.5,51.625 410.531219482422,46.1250114440918 406.625,41.375 401.875,37.4687614440918 396.375,34.5 390.34375,32.6250267028809 384,32 64,32 57.5,32.6250267028809 51.5,34.5 46.09375,37.4687614440918 41.375,41.375 37.46875,46.0937652587891 34.5,51.5 32.625,57.5000038146973 32,64 32,384 32.25,388.25 33,392.5 185.75,239.75 189.98046875,235.8828125 194.421875,232.53125 199.07421875,229.6953125 203.9375,227.375 209.01171875,225.5703125 214.296875,224.28125 219.79296875,223.5078125 225.5,223.25 231.1640625,223.5234375 236.656234741211,224.34375 241.976547241211,225.7109375 247.125,227.625 252.054672241211,230.039077758789 256.71875,232.906265258789 261.1171875,236.226577758789 265.25,240 311.75,287.25 289,309.75 242.5,262.5 239.031234741211,259.5625 235.125,257.25 230.906234741211,255.75 226.5,255.25 221.53125,255.6875 216.625,257 212.09375,259.1875 208.25,262.25 55.5,415 59.75,415.75 64,416 204.75,416 196.75,448 62.75,448 56.5703125,447.6796875 50.5312461853027,446.71875 44.6328086853027,445.1171875 38.875,442.875 33.359375,440.09375 28.1875,436.875 23.359375,433.21875 18.875,429.125 14.78125,424.640625 11.125,419.8125 7.90624952316284,414.640625 5.125,409.125 2.8828125,403.3671875 1.28125,397.46875 0.3203125,391.4296875 0,385.25 0,62.75 0.3203125,56.5703239440918 1.28125,50.5312614440918 2.8828125,44.6328201293945 5.125,38.875 7.90624952316284,33.3593864440918 11.125,28.1875190734863 14.78125,23.3593902587891 18.875,18.875 23.359375,14.7812652587891 28.1875,11.1250190734863 33.359375,7.90626287460327 38.875,5.125 44.6328086853027,2.88281679153442 50.5312461853027,1.28125381469727 56.5703125,0.320313930511475 62.75,0z" />
  </g>
</svg>

