<?xml version="1.0" encoding="utf-8"?>
<svg xmlns="http://www.w3.org/2000/svg" height="18" width="18" viewBox="0 0 18 18">
  <g>
    <path id="path1" transform="rotate(0,9,9) translate(0,0.483489403647118) scale(0.189255791030064,0.189255791030064)  " fill="#000000" d="M25.359375,36L23.3203125,36.3515625 21.5625,37.3359375 20.203125,38.859375 19.453125,40.78125 10.5937490463257,83.8125 12,84 77.671875,84 79.7578125,83.6015625 81.5859375,82.5 82.9453125,80.859375 83.625,78.84375 89.0625,39.421875 89.109375,38.90625 88.88671875,37.7812538146973 88.21875,36.84375 87.24609375,36.2109413146973 86.109375,36 25.359375,36z M12,12L9.65624904632568,12.46875 7.7578125,13.7578115463257 6.46875,15.65625 5.99999952316284,18 5.99999952316284,76.40625 13.5937509536743,39.5625 15.1171875,35.7421875 17.7890625,32.71875 21.3046875,30.7265625 25.359375,30 84,30 83.53125,27.6796875 82.2421875,25.7578125 80.3203125,24.46875 78,24 46.5,24 39.28125,14.390625 37.171875,12.6328125 34.5,12 12,12z M11.7656259536743,5.99999952316284L34.5,5.99999952316284 37.294921875,6.31640625 39.8671875,7.26562452316284 42.158203125,8.77734375 44.109375,10.78125 46.8046875,14.390625 49.5,18 78.234375,18 80.666015625,18.251953125 82.8984375,19.0078125 86.625,21.7265625 89.109375,25.6875 89.77734375,27.984375 90,30.375 90,30.890625 92.07421875,32.279296875 93.703125,34.1953125 94.7578125,36.4746131896973 95.109375,38.953125 95.0859375,39.5859375 95.015625,40.21875 89.53125,79.640625 89.056640625,81.767578125 88.1953125,83.7421875 85.546875,87.0234375 81.9375,89.203125 79.86328125,89.80078125 77.671875,90 11.7656259536743,90 9.474609375,89.759765625 7.28906297683716,89.0390625 3.5390625,86.4609375 0.960936963558197,82.7109375 0.240234315395355,80.525390625 0,78.234375 0,17.765625 0.240234315395355,15.474609375 0.960936963558197,13.2890625 3.5390625,9.5390625 7.28906297683716,6.96093797683716 9.474609375,6.240234375 11.7656259536743,5.99999952316284z" />
  </g>
</svg>

