<?xml version="1.0" encoding="utf-8"?>
<svg xmlns="http://www.w3.org/2000/svg" height="20" width="20" viewBox="0 0 20 20">
  <g>
    <path id="path1" transform="rotate(0,10,10) translate(0,0) scale(0.0416666666666667,0.0416666666666667)  " fill="#000000" d="M240,312L244.8125,312.4375 249.25,313.75 253.3125,315.9375 257,319 260.0625,322.6875 262.25,326.75 263.5625,331.1875 264,336 263.5625,340.8125 262.25,345.25 260.0625,349.3125 257,353 253.3125,356.0625 249.25,358.25 244.8125,359.5625 240,360 235.1875,359.5625 230.75,358.25 226.6875,356.0625 223,353 219.937484741211,349.3125 217.749984741211,345.25 216.437484741211,340.8125 216,336 216.437484741211,331.1875 217.749984741211,326.75 219.937484741211,322.6875 223,319 226.6875,315.9375 230.75,313.75 235.1875,312.4375 240,312z M240,128L243.140625,128.296875 246.0625,129.1875 248.765625,130.671875 251.25,132.75 253.328125,135.234390258789 254.8125,137.937515258789 255.703125,140.859390258789 256,144 256,272 255.703125,275.140625 254.8125,278.0625 253.328125,280.765625 251.25,283.25 248.765625,285.328125 246.0625,286.8125 243.140625,287.703125 240,288 236.859375,287.703125 233.9375,286.8125 231.234375,285.328125 228.75,283.25 226.671875,280.765625 225.1875,278.0625 224.296875,275.140625 224,272 224,144 224.296875,140.859390258789 225.1875,137.937515258789 226.671875,135.234390258789 228.75,132.75 231.234375,130.671875 233.9375,129.1875 236.859375,128.296875 240,128z M240,31.9999980926514L225.7578125,32.4609565734863 211.78125,33.8437767028809 198.0703125,36.1484603881836 184.625,39.375 171.53125,43.4453201293945 158.875,48.2812576293945 146.65625,53.8828163146973 134.875,60.2500038146973 123.5703125,67.34375 112.781242370605,75.1250076293945 102.507804870605,83.5937576293945 92.75,92.75 83.59375,102.507820129395 75.125,112.781265258789 67.34375,123.570320129395 60.2500038146973,134.875 53.8828125,146.656265258789 48.28125,158.875 43.4453125,171.53125 39.375,184.625 36.1484375,198.0703125 33.84375,211.78125 32.4609375,225.7578125 31.9999980926514,240 32.4609375,254.242202758789 33.84375,268.21875 36.1484375,281.9296875 39.375,295.375 43.4453125,308.46875 48.28125,321.125 53.8828125,333.34375 60.2500038146973,345.125 67.34375,356.4296875 75.125,367.21875 83.59375,377.4921875 92.75,387.25 102.507804870605,396.40625 112.781242370605,404.875 123.5703125,412.65625 134.875,419.75 146.65625,426.1171875 158.875,431.71875 171.53125,436.5546875 184.625,440.625 198.0703125,443.8515625 211.78125,446.15625 225.7578125,447.5390625 240,448 254.2421875,447.5390625 268.21875,446.15625 281.9296875,443.8515625 295.375,440.625 308.46875,436.546875 321.125,431.6875 333.34375,426.046875 345.125,419.625 356.421875,412.484375 367.1875,404.6875 377.421875,396.234375 387.125,387.125 396.234375,377.421875 404.6875,367.1875 412.484375,356.421875 419.625,345.125 426.046875,333.34375 431.6875,321.125 436.546875,308.46875 440.625,295.375 443.8515625,281.9296875 446.15625,268.21875 447.5390625,254.242202758789 448,240 447.5390625,225.7578125 446.15625,211.78125 443.8515625,198.0703125 440.625,184.625 436.546875,171.53125 431.6875,158.875 426.046875,146.656265258789 419.625,134.875 412.484375,123.578132629395 404.6875,112.812507629395 396.234375,102.578132629395 387.125,92.875 377.421875,83.7656402587891 367.1875,75.3125228881836 356.421875,67.5156478881836 345.125,60.375 333.34375,53.9531364440918 321.125,48.3125152587891 308.46875,43.4531364440918 295.375,39.375 281.9296875,36.1484603881836 268.21875,33.8437767028809 254.2421875,32.4609565734863 240,31.9999980926514z M240,0L256.3515625,0.539062440395355 272.40625,2.15624952316284 288.1640625,4.85156106948853 303.625,8.62499713897705 318.6953125,13.375 333.28125,19.0000038146973 347.3828125,25.5000038146973 361,32.875 374.0703125,41.0781364440918 386.531219482422,50.0625152587891 398.382781982422,59.8281364440918 409.625,70.375 420.171875,81.6171951293945 429.9375,93.4687652587891 438.921875,105.929695129395 447.125,119 454.499969482422,132.6171875 460.999969482422,146.71875 466.624969482422,161.3046875 471.375,176.375 475.148406982422,191.835952758789 477.843719482422,207.59375 479.460906982422,223.6484375 480,240 479.468719482422,256.4609375 477.874969482422,272.59375 475.218719482422,288.3984375 471.5,303.875 466.8046875,318.9453125 461.21875,333.53125 454.7421875,347.6328125 447.375,361.25 439.171875,374.3203125 430.1875,386.78125 420.421875,398.6328125 409.875,409.875 398.6328125,420.421875 386.78125,430.1875 374.3203125,439.171875 361.25,447.375 347.6328125,454.7421875 333.53125,461.21875 318.9453125,466.8046875 303.875,471.5 288.3984375,475.21875 272.59375,477.875 256.4609375,479.46875 240,480 223.53125,479.46875 207.375,477.875 191.53125,475.21875 176,471.5 160.8828125,466.8046875 146.28125,461.21875 132.1953125,454.7421875 118.625,447.375 105.609375,439.171875 93.1875,430.1875 81.359375,420.421875 70.125,409.875 59.578125,398.640625 49.8125,386.8125 40.828125,374.390625 32.6250038146973,361.375 25.2578144073486,347.8046875 18.78125,333.71875 13.1953115463257,319.1171875 8.49999904632568,304 4.78124952316284,288.46875 2.125,272.625 0.53125,256.46875 0,240 0.53125,223.5390625 2.125,207.406265258789 4.78124952316284,191.601577758789 8.49999904632568,176.125 13.1953115463257,161.0546875 18.78125,146.46875 25.2578144073486,132.3671875 32.6250038146973,118.75 40.828125,105.679702758789 49.8125,93.2187728881836 59.578125,81.3672103881836 70.125,70.125 81.3671875,59.5781364440918 93.21875,49.8125152587891 105.6796875,40.8281364440918 118.75,32.6250038146973 132.3671875,25.257833480835 146.46875,18.7812728881836 161.0546875,13.1953268051147 176.125,8.49999904632568 191.6015625,4.78125381469727 207.40625,2.12500381469727 223.5390625,0.531251430511475 240,0z" />
  </g>
</svg>

