<?xml version="1.0" encoding="utf-8"?>
<svg xmlns="http://www.w3.org/2000/svg" height="20" width="20" viewBox="0 0 20 20">
  <g>
    <path id="path1" transform="rotate(0,10,10) translate(0,3.50877192982456) scale(0.043859649122807,0.043859649122807)  " fill="#000000" d="M416,216L420.0625,216.203125 424,216.8125 427.8125,217.828125 431.5,219.25 438.281219482422,223.031265258789 444.125,227.875 448.96875,233.718765258789 452.75,240.5 454.171844482422,244.1875 455.187469482422,248 455.796844482422,251.9375 456,256 455.796844482422,260.0625 455.187469482422,264 454.171844482422,267.8125 452.75,271.5 448.96875,278.28125 444.125,284.125 438.281219482422,288.96875 431.5,292.75 427.8125,294.171875 424,295.1875 420.0625,295.796875 416,296 411.9375,295.796875 408,295.1875 404.1875,294.171875 400.5,292.75 393.71875,288.96875 387.875,284.125 383.03125,278.28125 379.25,271.5 377.828125,267.8125 376.8125,264 376.203125,260.0625 376,256 376.203125,251.9375 376.8125,248 377.828125,244.1875 379.25,240.5 383.03125,233.718765258789 387.875,227.875 393.71875,223.031265258789 400.5,219.25 404.1875,217.828125 408,216.8125 411.9375,216.203125 416,216z M256,216L260.0625,216.203125 264,216.8125 267.8125,217.828125 271.5,219.25 278.28125,223.031265258789 284.125,227.875 288.96875,233.718765258789 292.75,240.5 294.171875,244.1875 295.1875,248 295.796875,251.9375 296,256 295.796875,260.0625 295.1875,264 294.171875,267.8125 292.75,271.5 288.96875,278.28125 284.125,284.125 278.28125,288.96875 271.5,292.75 267.8125,294.171875 264,295.1875 260.0625,295.796875 256,296 251.9375,295.796875 248,295.1875 244.1875,294.171875 240.5,292.75 233.718734741211,288.96875 227.875,284.125 223.03125,278.28125 219.25,271.5 217.828109741211,267.8125 216.812484741211,264 216.203109741211,260.0625 216,256 216.203109741211,251.9375 216.812484741211,248 217.828109741211,244.1875 219.25,240.5 223.03125,233.718765258789 227.875,227.875 233.718734741211,223.031265258789 240.5,219.25 244.1875,217.828125 248,216.8125 251.9375,216.203125 256,216z M96,216L100.062492370605,216.203125 103.999992370605,216.8125 107.812492370605,217.828125 111.5,219.25 118.28125,223.031265258789 124.125,227.875 128.96875,233.718765258789 132.75,240.5 134.171875,244.1875 135.1875,248 135.796875,251.9375 136,256 135.796875,260.0625 135.1875,264 134.171875,267.8125 132.75,271.5 128.96875,278.28125 124.125,284.125 118.28125,288.96875 111.5,292.75 107.812492370605,294.171875 103.999992370605,295.1875 100.062492370605,295.796875 96,296 91.9375,295.796875 88,295.1875 84.1875,294.171875 80.5,292.75 73.71875,288.96875 67.875,284.125 63.03125,278.28125 59.2500038146973,271.5 57.828125,267.8125 56.8125,264 56.203125,260.0625 56,256 56.203125,251.9375 56.8125,248 57.828125,244.1875 59.2500038146973,240.5 63.03125,233.718765258789 67.875,227.875 73.71875,223.031265258789 80.5,219.25 84.1875,217.828125 88,216.8125 91.9375,216.203125 96,216z" />
  </g>
</svg>

