<?xml version="1.0" encoding="utf-8"?>
<svg xmlns="http://www.w3.org/2000/svg" height="20" width="20" viewBox="0 0 20 20">
  <g>
    <path id="path1" transform="rotate(0,10,10) translate(0,0) scale(0.0416666666666667,0.0416666666666667)  " fill="#000000" d="M224,260.25L217.84375,260.8125 211.875,262.5 206.34375,265.3125 201.5,269.25 87.5,383 91.75,383.75 96,384 352,384 356.25,383.75 360.5,383 246.75,269.25 241.874984741211,265.3125 236.25,262.5 230.187484741211,260.8125 224,260.25z M304,112L310.34375,112.625 316.375,114.5 321.875,117.468765258789 326.625,121.375 330.53125,126.125022888184 333.5,131.625 335.375,137.656265258789 336,144 335.375,150.5 333.5,156.5 330.53125,161.90625 326.625,166.625 321.90625,170.531265258789 316.5,173.5 310.5,175.375 304,176 297.46875,175.375 291.375,173.5 285.90625,170.5625 281.25,166.75 277.4375,162.093765258789 274.5,156.625 272.625,150.53125 272,144 272.625,137.5 274.5,131.5 277.46875,126.093765258789 281.375,121.375 286.09375,117.468765258789 291.5,114.5 297.5,112.625 304,112z M448,104.5L455.09375,109.148452758789 461.375,114.593772888184 466.84375,120.835960388184 471.5,127.875 475.218719482422,135.460952758789 477.874969482422,143.34375 479.468719482422,151.5234375 480,160 480,386 479.523406982422,395.2734375 478.093719482422,404.34375 475.7109375,413.2109375 472.375,421.875 468.234375,430.171875 463.4375,437.9375 457.984375,445.171875 451.875,451.875 445.171875,457.984375 437.9375,463.4375 430.171875,468.234375 421.875,472.375 413.2109375,475.7109375 404.34375,478.09375 395.2734375,479.5234375 386,480 160,480 151.5234375,479.46875 143.34375,477.875 135.4609375,475.21875 127.875,471.5 120.8359375,466.84375 114.59375,461.375 109.1484375,455.09375 104.5,448 385.25,448 391.648406982422,447.671875 397.843719482422,446.6875 403.835906982422,445.046875 409.625,442.75 415.1328125,439.90625 420.28125,436.625 425.0703125,432.90625 429.5,428.75 433.531219482422,424.1953125 437.124969482422,419.28125 440.281219482422,414.0078125 443,408.375 445.1875,402.4921875 446.75,396.46875 447.6875,390.3046875 448,384 448,104.5z M96,64L89.5,64.625 83.5,66.5 78.09375,69.4687652587891 73.375,73.375 69.46875,78.0937652587891 66.5,83.5 64.625,89.5 64,96 64,352 64.25,356.25 65,360.5 178.75,246.5 183.328125,242.382827758789 188.3125,238.781265258789 193.703125,235.6953125 199.5,233.125 205.531234741211,231.101577758789 211.624984741211,229.65625 217.78125,228.7890625 224,228.5 230.3203125,228.78125 236.53125,229.625 242.6328125,231.03125 248.625,233 254.3671875,235.53125 259.71875,238.625 264.6796875,242.28125 269.25,246.5 383,360.5 383.75,356.25 384,352 384,96 383.375,89.6562652587891 381.5,83.625 378.53125,78.1250228881836 374.625,73.375 369.875,69.4687652587891 364.375,66.5 358.34375,64.625 352,64 96,64z M94.75,32L353.25,32 359.4296875,32.3203315734863 365.46875,33.2812767028809 371.3671875,34.8828315734863 377.125,37.1249961853027 382.640625,39.9062576293945 387.812469482422,43.1250076293945 392.640594482422,46.7812538146973 397.125,50.875 401.218719482422,55.3593788146973 404.874969482422,60.1875076293945 408.09375,65.3593826293945 410.875,70.875 413.1171875,76.6328353881836 414.71875,82.5312728881836 415.6796875,88.5703277587891 416,94.75 416,353.25 415.6796875,359.4296875 414.71875,365.46875 413.1171875,371.3671875 410.875,377.125 408.09375,382.640625 404.874969482422,387.8125 401.218719482422,392.640625 397.125,397.125 392.640594482422,401.21875 387.812469482422,404.875 382.640625,408.09375 377.125,410.875 371.3671875,413.1171875 365.46875,414.71875 359.4296875,415.6796875 353.25,416 94.75,416 88.5703125,415.6796875 82.53125,414.71875 76.6328125,413.1171875 70.875,410.875 65.359375,408.09375 60.1875,404.875 55.359375,401.21875 50.875,397.125 46.78125,392.640625 43.125,387.8125 39.9062461853027,382.640625 37.1249961853027,377.125 34.8828086853027,371.3671875 33.28125,365.46875 32.3203125,359.4296875 32,353.25 32,94.75 32.3203125,88.5703277587891 33.28125,82.5312728881836 34.8828086853027,76.6328353881836 37.1249961853027,70.875 39.9062461853027,65.3593826293945 43.125,60.1875076293945 46.78125,55.3593788146973 50.875,50.875 55.359375,46.7812538146973 60.1875,43.1250076293945 65.359375,39.9062576293945 70.875,37.1249961853027 76.6328125,34.8828315734863 82.53125,33.2812767028809 88.5703125,32.3203315734863 94.75,32z" />
  </g>
</svg>

