<?xml version="1.0" encoding="utf-8"?>
<svg viewBox="0 0 19 19" xmlns="http://www.w3.org/2000/svg">
  <g>
    <path id="path1" fill="#000000" d="M 11.495 2.375 L 11.94 3.562 L 16.625 3.562 L 17.084 3.655 L 17.465 3.91 L 17.72 4.291 L 17.812 4.75 L 17.812 16.625 L 17.775 16.922 L 12.218 11.281 L 11.546 10.822 L 11.153 10.7 L 10.743 10.66 L 10.335 10.699 L 9.945 10.817 L 9.268 11.272 L 3.6 16.94 L 3.572 16.783 L 3.562 16.625 L 3.562 11.94 L 2.375 11.495 L 2.375 16.671 L 2.423 17.125 L 2.565 17.557 L 3.075 18.3 L 3.818 18.81 L 4.25 18.952 L 4.704 19 L 16.671 19 L 17.125 18.952 L 17.557 18.81 L 18.3 18.3 L 18.81 17.557 L 18.952 17.125 L 19 16.671 L 19 4.704 L 18.952 4.25 L 18.81 3.818 L 18.3 3.075 L 17.557 2.565 L 17.125 2.423 L 16.671 2.375 L 11.495 2.375 M 13.656 5.937 L 12.97 6.077 L 12.399 6.462 L 12.014 7.032 L 11.875 7.719 L 12.014 8.405 L 12.399 8.976 L 12.97 9.361 L 13.656 9.5 L 14.343 9.361 L 14.913 8.976 L 15.298 8.405 L 15.437 7.719 L 15.298 7.032 L 14.913 6.462 L 14.343 6.077 L 13.656 5.937 M 13.656 7.125 L 13.881 7.169 L 14.074 7.301 L 14.206 7.494 L 14.25 7.719 L 14.206 7.944 L 14.074 8.136 L 13.881 8.268 L 13.656 8.312 L 13.431 8.268 L 13.239 8.136 L 13.107 7.944 L 13.062 7.719 L 13.107 7.494 L 13.239 7.301 L 13.431 7.169 L 13.656 7.125 M 10.734 11.847 L 11.082 11.917 L 11.374 12.116 L 16.931 17.775 L 16.778 17.803 L 16.625 17.812 L 4.75 17.812 L 4.592 17.803 L 4.435 17.775 L 10.103 12.107 L 10.391 11.912 L 10.734 11.847" style=""/>
    <path id="path-1" fill="#000000" d="M 5.344 0 L 4.272 0.106 L 3.266 0.422 L 2.354 0.92 L 1.568 1.568 L 0.92 2.354 L 0.422 3.266 L 0.106 4.272 L 0 5.344 L 0.104 6.422 L 0.417 7.431 L 0.911 8.343 L 1.559 9.129 L 2.345 9.776 L 3.256 10.27 L 4.265 10.583 L 5.344 10.687 L 6.415 10.582 L 7.422 10.265 L 8.333 9.768 L 9.12 9.12 L 9.768 8.333 L 10.265 7.422 L 10.582 6.415 L 10.687 5.344 L 10.64 4.624 L 10.497 3.929 L 10.268 3.269 L 9.959 2.653 L 9.12 1.568 L 8.034 0.728 L 7.418 0.42 L 6.759 0.19 L 6.064 0.048 L 5.344 0 M 5.344 2.375 L 5.569 2.419 L 5.761 2.551 L 5.893 2.744 L 5.937 2.969 L 5.937 6.179 L 7.246 4.871 L 7.461 4.724 L 7.719 4.676 L 7.976 4.724 L 8.192 4.871 L 8.338 5.086 L 8.387 5.344 L 8.338 5.601 L 8.192 5.817 L 5.817 8.192 L 5.601 8.338 L 5.344 8.387 L 5.086 8.338 L 4.871 8.192 L 2.496 5.817 L 2.349 5.601 L 2.301 5.344 L 2.349 5.086 L 2.496 4.871 L 2.711 4.724 L 2.969 4.676 L 3.226 4.724 L 3.442 4.871 L 4.75 6.179 L 4.75 2.969 L 4.794 2.744 L 4.926 2.551 L 5.119 2.419 L 5.344 2.375" style="" transform="matrix(0, -1, 1, 0, 0, 10.687)"/>
  </g>
</svg>