<?xml version="1.0" encoding="utf-8"?>
<svg xmlns="http://www.w3.org/2000/svg" height="20" width="20" viewBox="0 0 20 20">
  <g>
    <path id="path1" transform="rotate(0,10,10) translate(0,0) scale(0.0416666666666667,0.0416666666666667)  " fill="#000000" d="M144,288L140.859375,288.296875 137.9375,289.1875 135.234375,290.671875 132.75,292.75 130.671875,295.234375 129.1875,297.9375 128.296875,300.859375 128,304 128,448 384,448 384,304 383.703125,300.859375 382.8125,297.9375 381.328125,295.234375 379.25,292.75 376.765625,290.671875 374.0625,289.1875 371.140625,288.296875 368,288 144,288z M160,64L160,144 160.296875,147.140625 161.1875,150.0625 162.671875,152.765625 164.75,155.25 167.234375,157.328140258789 169.9375,158.8125 172.859375,159.703125 176,160 304,160 307.140625,159.703125 310.0625,158.8125 312.765625,157.328140258789 315.25,155.25 317.328125,152.765625 318.8125,150.0625 319.703125,147.140625 320,144 320,64 160,64z M96,64L89.5,64.625 83.5,66.5 78.09375,69.4687652587891 73.375,73.375 69.46875,78.0937652587891 66.5,83.5 64.625,89.5 64,96 64,416 64.625,422.53125 66.5,428.625 69.4375,434.09375 73.25,438.75 77.90625,442.5625 83.375,445.5 89.46875,447.375 96,448 96,304 96.234375,299.1875 96.9375,294.5 98.109375,289.9375 99.75,285.5 104.218742370605,277.28125 110.125,270.125 117.28125,264.21875 125.5,259.75 129.9375,258.109375 134.5,256.9375 139.1875,256.234375 144,256 368,256 372.8125,256.234375 377.5,256.9375 382.0625,258.109375 386.5,259.75 394.71875,264.21875 401.875,270.125 407.78125,277.28125 412.25,285.5 413.890625,289.9375 415.0625,294.5 415.765625,299.1875 416,304 416,448 422.5,447.375 428.5,445.5 433.90625,442.53125 438.625,438.625 442.53125,433.90625 445.5,428.5 447.375,422.5 448,416 448,164 447.421875,157.515625 445.6875,151.5625 442.796875,146.140640258789 438.75,141.25 370.75,73.25 366.671875,69.7812576293945 362.1875,67.1250076293945 357.296875,65.2812576293945 352,64.25 352,144 351.765625,148.8125 351.0625,153.5 349.890625,158.062515258789 348.25,162.5 343.78125,170.71875 337.875,177.875 330.71875,183.78125 322.5,188.25 318.0625,189.890625 313.5,191.0625 308.8125,191.765625 304,192 176,192 171.1875,191.765625 166.5,191.0625 161.9375,189.890625 157.5,188.25 149.28125,183.78125 142.125,177.875 136.21875,170.71875 131.75,162.5 130.109375,158.062515258789 128.9375,153.5 128.234375,148.8125 128,144 128,64 96,64z M94.75,32L348,32 354.3125,32.3047027587891 360.5,33.2187728881836 366.5625,34.7422027587891 372.5,36.875 378.203125,39.5703277587891 383.5625,42.7812728881836 388.578125,46.5078277587891 393.25,50.75 461.25,118.75 465.492156982422,123.421875 469.218719482422,128.4375 472.429656982422,133.796890258789 475.125,139.5 477.257781982422,145.4375 478.781219482422,151.5 479.695281982422,157.6875 480,164 480,416 479.687469482422,422.3046875 478.749969482422,428.46875 477.1875,434.4921875 475,440.375 472.28125,446.0078125 469.125,451.28125 465.53125,456.1953125 461.5,460.75 457.0703125,464.90625 452.28125,468.625 447.1328125,471.90625 441.625,474.75 435.8359375,477.046875 429.84375,478.6875 423.6484375,479.671875 417.25,480 96,480 89.6953125,479.6875 83.53125,478.75 77.5078125,477.1875 71.625,475 65.9921875,472.28125 60.7187461853027,469.125 55.8046836853027,465.53125 51.25,461.5 47.09375,457.0703125 43.375,452.28125 40.09375,447.1328125 37.25,441.625 34.953125,435.8359375 33.3125,429.84375 32.328125,423.6484375 32,417.25 32,96 32.3125,89.6953125 33.25,83.53125 34.8125,77.5078125 37,71.625 39.71875,65.9921875 42.875,60.7187538146973 46.46875,55.8046913146973 50.5000038146973,51.25 54.9296875,47.0937614440918 59.71875,43.3750190734863 64.8671875,40.0937652587891 70.375,37.25 76.1640625,34.9531402587891 82.15625,33.3125228881836 88.3515625,32.3281402587891 94.75,32z" />
  </g>
</svg>

