<?xml version="1.0" encoding="utf-8"?>
<svg xmlns="http://www.w3.org/2000/svg" height="20" width="20" viewBox="0 0 20 20">
  <g>
    <path id="path1" transform="rotate(0,10,10) translate(0,0) scale(0.0416666666666667,0.0416666666666667)  " fill="#000000" d="M208,112L211.140609741211,112.296875 214.062484741211,113.1875 216.765609741211,114.671882629395 219.25,116.75 221.328125,119.234390258789 222.8125,121.937515258789 223.703125,124.859390258789 224,128 224,192 288,192 291.140625,192.296875 294.0625,193.1875 296.765625,194.671875 299.25,196.75 301.328125,199.234390258789 302.8125,201.937515258789 303.703125,204.859390258789 304,208 303.703125,211.140625 302.8125,214.0625 301.328125,216.765625 299.25,219.25 296.765625,221.328140258789 294.0625,222.8125 291.140625,223.703125 288,224 224,224 224,288 223.703125,291.140625 222.8125,294.0625 221.328125,296.765625 219.25,299.25 216.765609741211,301.328125 214.062484741211,302.8125 211.140609741211,303.703125 208,304 204.859375,303.703125 201.9375,302.8125 199.234375,301.328125 196.75,299.25 194.671875,296.765625 193.1875,294.0625 192.296875,291.140625 192,288 192,224 128,224 124.859367370605,223.703125 121.937492370605,222.8125 119.234367370605,221.328140258789 116.75,219.25 114.671875,216.765625 113.1875,214.0625 112.296875,211.140625 112,208 112.296875,204.859390258789 113.1875,201.937515258789 114.671875,199.234390258789 116.75,196.75 119.234367370605,194.671875 121.937492370605,193.1875 124.859367370605,192.296875 128,192 192,192 192,128 192.296875,124.859390258789 193.1875,121.937515258789 194.671875,119.234390258789 196.75,116.75 199.234375,114.671882629395 201.9375,113.1875 204.859375,112.296875 208,112z M208,64L193.34375,64.7109375 179.125,66.8437576293945 165.34375,70.3984451293945 152,75.375 139.296875,81.5703353881836 127.4375,88.7812805175781 116.421875,97.0078277587891 106.25,106.25 97.0078125,116.421890258789 88.78125,127.437522888184 81.5703125,139.296890258789 75.375,152 70.3984375,165.34375 66.84375,179.125 64.7109375,193.343765258789 64,208 64.703125,222.765625 66.8125,237.0625 70.328125,250.890625 75.25,264.25 81.390625,276.953125 88.5625,288.8125 96.765625,299.828125 106,310 116.171875,319.234375 127.1875,327.4375 139.046875,334.609375 151.75,340.75 165.109375,345.671875 178.9375,349.1875 193.234375,351.296875 208,352 222.656234741211,351.2890625 236.874984741211,349.15625 250.656234741211,345.6015625 264,340.625 276.703125,334.4296875 288.5625,327.21875 299.578125,318.9921875 309.75,309.75 318.9921875,299.578125 327.21875,288.5625 334.4296875,276.703125 340.625,264 345.6015625,250.65625 349.15625,236.875 351.2890625,222.65625 352,208 351.6796875,198.2109375 350.71875,188.59375 349.1171875,179.1484375 346.875,169.875 344.046875,160.8359375 340.6875,152.09375 336.796875,143.648452758789 332.375,135.5 327.4453125,127.671882629395 322.03125,120.187507629395 316.1328125,113.046882629395 309.75,106.25 302.953125,99.8671951293945 295.8125,93.9687576293945 288.328125,88.5546875 280.5,83.625 272.3515625,79.203125 263.90625,75.3125076293945 255.1640625,71.9531326293945 246.125,69.125 236.8515625,66.8828201293945 227.40625,65.28125 217.7890625,64.3203125 208,64z M208,32L220.015625,32.3906440734863 231.8125,33.5625267028809 243.390625,35.5156478881836 254.75,38.2500038146973 265.8203125,41.7031364440918 276.53125,45.8125114440918 286.8828125,50.5781326293945 296.875,56 306.4609375,62.0312614440918 315.59375,68.6250152587891 324.2734375,75.7812576293945 332.5,83.5 340.21875,91.7265777587891 347.375,100.406265258789 353.96875,109.539077758789 360,119.125 365.421875,129.1171875 370.1875,139.46875 374.296875,150.1796875 377.75,161.25 380.484375,172.609375 382.4375,184.1875 383.609375,195.984375 384,208 383.34375,223.367202758789 381.375,238.46875 378.09375,253.3046875 373.5,267.875 367.671875,282.0078125 360.6875,295.53125 352.546875,308.4453125 343.25,320.75 475.25,452.75 477.328094482422,455.234375 478.812469482422,457.9375 479.703094482422,460.859375 480,464 479.703094482422,467.140625 478.812469482422,470.0625 477.328094482422,472.765625 475.25,475.25 472.765625,477.328125 470.0625,478.8125 467.140625,479.703125 464,480 460.859344482422,479.703125 457.937469482422,478.8125 455.234344482422,477.328125 452.75,475.25 320.75,343.25 308.4453125,352.546875 295.53125,360.6875 282.0078125,367.671875 267.875,373.5 253.3046875,378.09375 238.46875,381.375 223.3671875,383.34375 208,384 198.88671875,383.78515625 189.921875,383.140625 181.10546875,382.06640625 172.4375,380.5625 163.91796875,378.62890625 155.546875,376.265625 147.32421875,373.47265625 139.25,370.25 123.757804870605,362.7421875 109.281242370605,353.96875 95.8203048706055,343.9296875 83.375,332.625 72.0703125,320.1796875 62.0312461853027,306.71875 53.2578125,292.2421875 45.75,276.75 42.52734375,268.67578125 39.734375,260.453125 37.37109375,252.082046508789 35.4375,243.5625 33.93359375,234.89453125 32.859375,226.078125 32.21484375,217.11328125 32,208 32.390625,195.9765625 33.5625,184.15625 35.515625,172.5390625 38.2500038146973,161.125 41.703125,150.007827758789 45.8125,139.28125 50.578125,128.9453125 56,119 62.03125,109.468765258789 68.625,100.375015258789 75.78125,91.7187652587891 83.5,83.5 91.71875,75.7812576293945 100.375,68.6250152587891 109.46875,62.0312614440918 119,56 128.9375,50.5781326293945 139.25,45.8125114440918 149.9375,41.7031364440918 161,38.2500038146973 172.375,35.5156478881836 184,33.5625267028809 195.875,32.3906440734863 208,32z" />
  </g>
</svg>

